<mxfile host="65bd71144e" modified="2020-11-29T06:35:17.376Z" agent="5.0 (Macintosh; Intel Mac OS X 10_15_6) AppleWebKit/537.36 (KHTML, like Gecko) Code/1.51.1 Chrome/83.0.4103.122 Electron/9.3.3 Safari/537.36" version="13.6.5" etag="UVS9aDa2T50mMDl1MGez">
    <diagram id="Hz8ojdd6aVt_hYoi2Gim" name="MMKV">
        <mxGraphModel dx="954" dy="685" grid="1" gridSize="10" guides="1" tooltips="1" connect="1" arrows="1" fold="1" page="1" pageScale="1" pageWidth="827" pageHeight="1169" math="0" shadow="0">
            <root>
                <mxCell id="0"/>
                <mxCell id="1" parent="0"/>
                <mxCell id="2" value="" style="group" vertex="1" connectable="0" parent="1">
                    <mxGeometry x="40" y="40" width="720" height="520" as="geometry"/>
                </mxCell>
                <mxCell id="3" value="" style="group" vertex="1" connectable="0" parent="2">
                    <mxGeometry width="720" height="520" as="geometry"/>
                </mxCell>
                <mxCell id="4" value="Context" style="rounded=0;whiteSpace=wrap;html=1;fillColor=#60a917;strokeColor=#2D7600;fontColor=#ffffff;" vertex="1" parent="3">
                    <mxGeometry x="119.99999999999997" width="180" height="57.777777777777786" as="geometry"/>
                </mxCell>
                <mxCell id="5" value="getSharePreferences" style="rounded=0;whiteSpace=wrap;html=1;fillColor=#6a00ff;strokeColor=#3700CC;fontColor=#ffffff;" vertex="1" parent="3">
                    <mxGeometry y="462.2222222222223" width="720" height="57.777777777777786" as="geometry"/>
                </mxCell>
                <mxCell id="6" value="Service" style="rounded=0;whiteSpace=wrap;html=1;fillColor=#d80073;strokeColor=#A50040;fontColor=#ffffff;" vertex="1" parent="3">
                    <mxGeometry x="539.9999999999999" y="231.11111111111114" width="180" height="57.777777777777786" as="geometry"/>
                </mxCell>
                <mxCell id="7" style="edgeStyle=orthogonalEdgeStyle;rounded=0;jumpStyle=none;orthogonalLoop=1;jettySize=auto;html=1;entryX=0.5;entryY=1;entryDx=0;entryDy=0;" edge="1" parent="3" source="5" target="6">
                    <mxGeometry relative="1" as="geometry"/>
                </mxCell>
                <mxCell id="8" style="edgeStyle=orthogonalEdgeStyle;rounded=0;orthogonalLoop=1;jettySize=auto;html=1;exitX=0.5;exitY=0;exitDx=0;exitDy=0;" edge="1" parent="3" source="9">
                    <mxGeometry relative="1" as="geometry">
                        <mxPoint x="209.99999999999997" y="57.777777777777786" as="targetPoint"/>
                    </mxGeometry>
                </mxCell>
                <mxCell id="9" value="ContextWrapper" style="rounded=0;whiteSpace=wrap;html=1;fillColor=#60a917;strokeColor=#2D7600;fontColor=#ffffff;" vertex="1" parent="3">
                    <mxGeometry x="299.99999999999994" y="115.55555555555557" width="180" height="57.777777777777786" as="geometry"/>
                </mxCell>
                <mxCell id="10" style="edgeStyle=orthogonalEdgeStyle;rounded=0;orthogonalLoop=1;jettySize=auto;html=1;exitX=0.5;exitY=0;exitDx=0;exitDy=0;entryX=0.5;entryY=1;entryDx=0;entryDy=0;" edge="1" parent="3" source="6" target="9">
                    <mxGeometry relative="1" as="geometry"/>
                </mxCell>
                <mxCell id="11" style="edgeStyle=orthogonalEdgeStyle;rounded=0;orthogonalLoop=1;jettySize=auto;html=1;exitX=0.5;exitY=0;exitDx=0;exitDy=0;" edge="1" parent="3" source="12" target="9">
                    <mxGeometry relative="1" as="geometry"/>
                </mxCell>
                <mxCell id="12" value="ContextThemeWrapper" style="rounded=0;whiteSpace=wrap;html=1;fillColor=#60a917;strokeColor=#2D7600;fontColor=#ffffff;" vertex="1" parent="3">
                    <mxGeometry y="231.11111111111114" width="239.99999999999994" height="57.777777777777786" as="geometry"/>
                </mxCell>
                <mxCell id="13" style="edgeStyle=orthogonalEdgeStyle;rounded=0;orthogonalLoop=1;jettySize=auto;html=1;entryX=0.5;entryY=1;entryDx=0;entryDy=0;" edge="1" parent="3" source="14" target="9">
                    <mxGeometry relative="1" as="geometry"/>
                </mxCell>
                <mxCell id="14" value="Application" style="rounded=0;whiteSpace=wrap;html=1;fillColor=#d80073;strokeColor=#A50040;fontColor=#ffffff;" vertex="1" parent="3">
                    <mxGeometry x="299.99999999999994" y="231.11111111111114" width="180" height="57.777777777777786" as="geometry"/>
                </mxCell>
                <mxCell id="15" style="edgeStyle=orthogonalEdgeStyle;rounded=0;jumpStyle=none;orthogonalLoop=1;jettySize=auto;html=1;" edge="1" parent="3" source="5" target="14">
                    <mxGeometry relative="1" as="geometry"/>
                </mxCell>
                <mxCell id="16" style="edgeStyle=orthogonalEdgeStyle;rounded=0;orthogonalLoop=1;jettySize=auto;html=1;exitX=0.5;exitY=0;exitDx=0;exitDy=0;" edge="1" parent="3" source="17" target="4">
                    <mxGeometry relative="1" as="geometry"/>
                </mxCell>
                <mxCell id="17" value="ContextImpl" style="rounded=0;whiteSpace=wrap;html=1;fillColor=#60a917;strokeColor=#2D7600;fontColor=#ffffff;" vertex="1" parent="3">
                    <mxGeometry y="115.55555555555557" width="180" height="57.777777777777786" as="geometry"/>
                </mxCell>
                <mxCell id="18" style="edgeStyle=orthogonalEdgeStyle;rounded=0;orthogonalLoop=1;jettySize=auto;html=1;entryX=1;entryY=0.5;entryDx=0;entryDy=0;jumpStyle=none;dashed=1;" edge="1" parent="3" source="9" target="17">
                    <mxGeometry relative="1" as="geometry"/>
                </mxCell>
                <mxCell id="19" style="edgeStyle=orthogonalEdgeStyle;rounded=0;jumpStyle=none;orthogonalLoop=1;jettySize=auto;html=1;entryX=0.5;entryY=1;entryDx=0;entryDy=0;" edge="1" parent="3" source="20" target="12">
                    <mxGeometry relative="1" as="geometry"/>
                </mxCell>
                <mxCell id="20" value="Activity" style="rounded=0;whiteSpace=wrap;html=1;fillColor=#d80073;strokeColor=#A50040;fontColor=#ffffff;" vertex="1" parent="3">
                    <mxGeometry y="346.66666666666674" width="239.99999999999994" height="57.777777777777786" as="geometry"/>
                </mxCell>
                <mxCell id="21" style="edgeStyle=orthogonalEdgeStyle;rounded=0;jumpStyle=none;orthogonalLoop=1;jettySize=auto;html=1;entryX=0.5;entryY=1;entryDx=0;entryDy=0;" edge="1" parent="3" source="5" target="20">
                    <mxGeometry relative="1" as="geometry"/>
                </mxCell>
                <mxCell id="22" value="SharePreference 获取" style="text;html=1;align=center;verticalAlign=middle;resizable=0;points=[];autosize=1;" vertex="1" parent="2">
                    <mxGeometry x="465" y="60" width="130" height="20" as="geometry"/>
                </mxCell>
                <mxCell id="23" value="" style="group" vertex="1" connectable="0" parent="1">
                    <mxGeometry x="60" y="610" width="670" height="320" as="geometry"/>
                </mxCell>
                <mxCell id="24" value="FileOutputStream" style="rounded=0;whiteSpace=wrap;html=1;" vertex="1" parent="23">
                    <mxGeometry x="461.07526881720435" y="213.33333333333331" width="172.90322580645162" height="106.66666666666666" as="geometry"/>
                </mxCell>
                <mxCell id="25" value="XML" style="rounded=1;whiteSpace=wrap;html=1;" vertex="1" parent="23">
                    <mxGeometry x="244.9462365591398" width="172.90322580645162" height="106.66666666666666" as="geometry"/>
                </mxCell>
                <mxCell id="26" value="FileinputStream" style="rounded=0;whiteSpace=wrap;html=1;" vertex="1" parent="23">
                    <mxGeometry y="213.33333333333331" width="172.90322580645162" height="106.66666666666666" as="geometry"/>
                </mxCell>
                <mxCell id="27" value="" style="endArrow=classic;html=1;exitX=-0.042;exitY=0.637;exitDx=0;exitDy=0;exitPerimeter=0;entryX=0.5;entryY=0;entryDx=0;entryDy=0;" edge="1" parent="23" source="25" target="26">
                    <mxGeometry width="50" height="50" relative="1" as="geometry">
                        <mxPoint x="461.07526881720435" y="177.77777777777777" as="sourcePoint"/>
                        <mxPoint x="533.1182795698925" y="88.88888888888889" as="targetPoint"/>
                    </mxGeometry>
                </mxCell>
                <mxCell id="28" value="" style="endArrow=classic;html=1;exitX=0.5;exitY=0;exitDx=0;exitDy=0;entryX=1;entryY=0.5;entryDx=0;entryDy=0;" edge="1" parent="23" source="24" target="25">
                    <mxGeometry width="50" height="50" relative="1" as="geometry">
                        <mxPoint x="461.07526881720435" y="177.77777777777777" as="sourcePoint"/>
                        <mxPoint x="533.1182795698925" y="88.88888888888889" as="targetPoint"/>
                    </mxGeometry>
                </mxCell>
                <mxCell id="29" value="SharePreference读取方式&lt;br&gt;&lt;br&gt;" style="text;html=1;align=center;verticalAlign=middle;resizable=0;points=[];autosize=1;" vertex="1" parent="23">
                    <mxGeometry x="453.8709677419355" y="44.44444444444444" width="150" height="30" as="geometry"/>
                </mxCell>
                <mxCell id="30" value="" style="group" vertex="1" connectable="0" parent="1">
                    <mxGeometry x="827" y="30" width="790" height="200" as="geometry"/>
                </mxCell>
                <mxCell id="31" value="&lt;b&gt;&lt;font style=&quot;font-size: 18px&quot;&gt;总长度&lt;/font&gt;&lt;/b&gt;" style="rounded=0;whiteSpace=wrap;html=1;sketch=0;strokeColor=#A50040;fillColor=#d80073;fontColor=#ffffff;" vertex="1" parent="30">
                    <mxGeometry x="30" width="120" height="40" as="geometry"/>
                </mxCell>
                <mxCell id="32" value="&lt;b&gt;&lt;font style=&quot;font-size: 18px&quot;&gt;key长度&lt;/font&gt;&lt;/b&gt;" style="rounded=0;whiteSpace=wrap;html=1;sketch=0;strokeColor=#A50040;fillColor=#d80073;fontColor=#ffffff;" vertex="1" parent="30">
                    <mxGeometry x="190" width="120" height="40" as="geometry"/>
                </mxCell>
                <mxCell id="33" style="edgeStyle=orthogonalEdgeStyle;curved=0;rounded=1;sketch=0;orthogonalLoop=1;jettySize=auto;html=1;entryX=0;entryY=0.5;entryDx=0;entryDy=0;strokeColor=#60E696;fillColor=#F694C1;fontColor=#095C86;strokeWidth=5;" edge="1" parent="30" source="31" target="32">
                    <mxGeometry relative="1" as="geometry"/>
                </mxCell>
                <mxCell id="34" value="&lt;b&gt;&lt;font style=&quot;font-size: 18px&quot;&gt;value长度&lt;/font&gt;&lt;/b&gt;" style="rounded=0;whiteSpace=wrap;html=1;sketch=0;strokeColor=#A50040;fillColor=#d80073;fontColor=#ffffff;" vertex="1" parent="30">
                    <mxGeometry x="510" width="120" height="40" as="geometry"/>
                </mxCell>
                <mxCell id="35" value="&lt;b&gt;&lt;font style=&quot;font-size: 18px&quot;&gt;value&lt;/font&gt;&lt;/b&gt;" style="rounded=0;whiteSpace=wrap;html=1;sketch=0;strokeColor=#A50040;fillColor=#d80073;fontColor=#ffffff;" vertex="1" parent="30">
                    <mxGeometry x="670" width="120" height="40" as="geometry"/>
                </mxCell>
                <mxCell id="36" style="edgeStyle=orthogonalEdgeStyle;curved=0;rounded=1;sketch=0;orthogonalLoop=1;jettySize=auto;html=1;strokeColor=#60E696;strokeWidth=5;fillColor=#F694C1;fontColor=#095C86;" edge="1" parent="30" source="34" target="35">
                    <mxGeometry relative="1" as="geometry"/>
                </mxCell>
                <mxCell id="37" style="edgeStyle=orthogonalEdgeStyle;curved=0;rounded=1;sketch=0;orthogonalLoop=1;jettySize=auto;html=1;entryX=0;entryY=0.5;entryDx=0;entryDy=0;strokeColor=#60E696;strokeWidth=5;fillColor=#F694C1;fontColor=#095C86;" edge="1" parent="30" source="38" target="34">
                    <mxGeometry relative="1" as="geometry"/>
                </mxCell>
                <mxCell id="38" value="&lt;b&gt;&lt;font style=&quot;font-size: 18px&quot;&gt;key&lt;/font&gt;&lt;/b&gt;" style="rounded=0;whiteSpace=wrap;html=1;sketch=0;strokeColor=#A50040;fillColor=#d80073;fontColor=#ffffff;" vertex="1" parent="30">
                    <mxGeometry x="350" width="120" height="40" as="geometry"/>
                </mxCell>
                <mxCell id="39" style="edgeStyle=orthogonalEdgeStyle;curved=0;rounded=1;sketch=0;orthogonalLoop=1;jettySize=auto;html=1;exitX=1;exitY=0.5;exitDx=0;exitDy=0;entryX=0;entryY=0.5;entryDx=0;entryDy=0;strokeColor=#60E696;strokeWidth=5;fillColor=#F694C1;fontColor=#095C86;" edge="1" parent="30" source="32" target="38">
                    <mxGeometry relative="1" as="geometry"/>
                </mxCell>
                <mxCell id="40" value="&lt;b&gt;&lt;font style=&quot;font-size: 18px&quot;&gt;......&lt;/font&gt;&lt;/b&gt;" style="rounded=0;whiteSpace=wrap;html=1;sketch=0;strokeColor=#A50040;fillColor=#d80073;fontColor=#ffffff;" vertex="1" parent="30">
                    <mxGeometry x="190" y="160" width="120" height="40" as="geometry"/>
                </mxCell>
                <mxCell id="41" value="&lt;b&gt;&lt;font style=&quot;font-size: 18px&quot;&gt;key长度&lt;/font&gt;&lt;/b&gt;" style="rounded=0;whiteSpace=wrap;html=1;sketch=0;strokeColor=#A50040;fillColor=#d80073;fontColor=#ffffff;" vertex="1" parent="30">
                    <mxGeometry x="190" y="80" width="120" height="40" as="geometry"/>
                </mxCell>
                <mxCell id="42" style="edgeStyle=orthogonalEdgeStyle;curved=0;rounded=1;sketch=0;orthogonalLoop=1;jettySize=auto;html=1;exitX=1;exitY=0.5;exitDx=0;exitDy=0;entryX=0;entryY=0.5;entryDx=0;entryDy=0;strokeColor=#60E696;strokeWidth=5;fillColor=#F694C1;fontColor=#095C86;" edge="1" parent="30" source="35" target="41">
                    <mxGeometry relative="1" as="geometry"/>
                </mxCell>
                <mxCell id="43" value="&lt;b&gt;&lt;font style=&quot;font-size: 18px&quot;&gt;value长度&lt;/font&gt;&lt;/b&gt;" style="rounded=0;whiteSpace=wrap;html=1;sketch=0;strokeColor=#A50040;fillColor=#d80073;fontColor=#ffffff;" vertex="1" parent="30">
                    <mxGeometry x="510" y="80" width="120" height="40" as="geometry"/>
                </mxCell>
                <mxCell id="44" style="edgeStyle=orthogonalEdgeStyle;curved=0;rounded=1;sketch=0;orthogonalLoop=1;jettySize=auto;html=1;exitX=1;exitY=0.5;exitDx=0;exitDy=0;entryX=0;entryY=0.5;entryDx=0;entryDy=0;strokeColor=#60E696;strokeWidth=5;fillColor=#F694C1;fontColor=#095C86;" edge="1" parent="30" source="45" target="40">
                    <mxGeometry relative="1" as="geometry"/>
                </mxCell>
                <mxCell id="45" value="&lt;b&gt;&lt;font style=&quot;font-size: 18px&quot;&gt;value&lt;/font&gt;&lt;/b&gt;" style="rounded=0;whiteSpace=wrap;html=1;sketch=0;strokeColor=#A50040;fillColor=#d80073;fontColor=#ffffff;" vertex="1" parent="30">
                    <mxGeometry x="670" y="80" width="120" height="40" as="geometry"/>
                </mxCell>
                <mxCell id="46" style="edgeStyle=orthogonalEdgeStyle;curved=0;rounded=1;sketch=0;orthogonalLoop=1;jettySize=auto;html=1;strokeColor=#60E696;strokeWidth=5;fillColor=#F694C1;fontColor=#095C86;" edge="1" parent="30" source="43" target="45">
                    <mxGeometry relative="1" as="geometry"/>
                </mxCell>
                <mxCell id="47" style="edgeStyle=orthogonalEdgeStyle;curved=0;rounded=1;sketch=0;orthogonalLoop=1;jettySize=auto;html=1;strokeColor=#60E696;strokeWidth=5;fillColor=#F694C1;fontColor=#095C86;" edge="1" parent="30" source="48" target="43">
                    <mxGeometry relative="1" as="geometry"/>
                </mxCell>
                <mxCell id="48" value="&lt;b&gt;&lt;font style=&quot;font-size: 18px&quot;&gt;key&lt;/font&gt;&lt;/b&gt;" style="rounded=0;whiteSpace=wrap;html=1;sketch=0;strokeColor=#A50040;fillColor=#d80073;fontColor=#ffffff;" vertex="1" parent="30">
                    <mxGeometry x="350" y="80" width="120" height="40" as="geometry"/>
                </mxCell>
                <mxCell id="49" style="edgeStyle=orthogonalEdgeStyle;curved=0;rounded=1;sketch=0;orthogonalLoop=1;jettySize=auto;html=1;entryX=0;entryY=0.5;entryDx=0;entryDy=0;strokeColor=#60E696;strokeWidth=5;fillColor=#F694C1;fontColor=#095C86;" edge="1" parent="30" source="41" target="48">
                    <mxGeometry relative="1" as="geometry"/>
                </mxCell>
                <mxCell id="50" value="MMKV存储结构" style="text;html=1;align=center;verticalAlign=middle;resizable=0;points=[];autosize=1;fontStyle=1;fontColor=#FFFFFF;fontSize=20;" vertex="1" parent="30">
                    <mxGeometry y="120" width="160" height="30" as="geometry"/>
                </mxCell>
                <mxCell id="51" value="" style="group" vertex="1" connectable="0" parent="1">
                    <mxGeometry x="880" y="280" width="700" height="360" as="geometry"/>
                </mxCell>
                <mxCell id="52" value="" style="group" vertex="1" connectable="0" parent="51">
                    <mxGeometry width="700" height="360" as="geometry"/>
                </mxCell>
                <mxCell id="53" value="保存数据" style="rounded=1;whiteSpace=wrap;html=1;sketch=0;strokeColor=#AF45ED;fillColor=#F694C1;fontSize=20;fontColor=#FFFFFF;" vertex="1" parent="52">
                    <mxGeometry width="120" height="280" as="geometry"/>
                </mxCell>
                <mxCell id="54" value="&amp;lt;=0x7f" style="rounded=1;whiteSpace=wrap;html=1;sketch=0;strokeColor=#2D7600;fillColor=#60a917;fontSize=20;fontColor=#ffffff;" vertex="1" parent="52">
                    <mxGeometry x="160" width="120" height="120" as="geometry"/>
                </mxCell>
                <mxCell id="55" style="edgeStyle=orthogonalEdgeStyle;curved=0;rounded=1;sketch=0;orthogonalLoop=1;jettySize=auto;html=1;entryX=0.083;entryY=0.5;entryDx=0;entryDy=0;entryPerimeter=0;strokeColor=#60E696;strokeWidth=5;fillColor=#F694C1;fontSize=20;fontColor=#FFFFFF;" edge="1" parent="52" source="53" target="54">
                    <mxGeometry relative="1" as="geometry"/>
                </mxCell>
                <mxCell id="56" value="写入" style="rounded=1;whiteSpace=wrap;html=1;sketch=0;strokeColor=#006EAF;fillColor=#1ba1e2;fontSize=20;fontColor=#ffffff;" vertex="1" parent="52">
                    <mxGeometry x="361" width="239" height="120" as="geometry"/>
                </mxCell>
                <mxCell id="57" style="edgeStyle=orthogonalEdgeStyle;curved=0;rounded=1;sketch=0;orthogonalLoop=1;jettySize=auto;html=1;exitX=1;exitY=0.5;exitDx=0;exitDy=0;strokeColor=#60E696;strokeWidth=5;fillColor=#F694C1;fontSize=20;fontColor=#FFFFFF;" edge="1" parent="52" source="54" target="56">
                    <mxGeometry relative="1" as="geometry"/>
                </mxCell>
                <mxCell id="58" value="&amp;lt;=0x7f" style="rounded=1;whiteSpace=wrap;html=1;sketch=0;strokeColor=#2D7600;fillColor=#60a917;fontSize=20;fontColor=#ffffff;" vertex="1" parent="52">
                    <mxGeometry x="160" y="160" width="120" height="120" as="geometry"/>
                </mxCell>
                <mxCell id="59" style="edgeStyle=orthogonalEdgeStyle;curved=0;rounded=1;sketch=0;orthogonalLoop=1;jettySize=auto;html=1;strokeColor=#60E696;strokeWidth=5;fillColor=#F694C1;fontSize=20;fontColor=#FFFFFF;" edge="1" parent="52" source="53" target="58">
                    <mxGeometry relative="1" as="geometry"/>
                </mxCell>
                <mxCell id="60" style="edgeStyle=orthogonalEdgeStyle;curved=0;rounded=1;sketch=0;orthogonalLoop=1;jettySize=auto;html=1;entryX=0.5;entryY=1;entryDx=0;entryDy=0;strokeColor=#60E696;strokeWidth=5;fillColor=#F694C1;fontSize=20;fontColor=#FFFFFF;" edge="1" parent="52" source="61" target="53">
                    <mxGeometry relative="1" as="geometry">
                        <Array as="points">
                            <mxPoint x="700" y="215"/>
                            <mxPoint x="700" y="360"/>
                            <mxPoint x="60" y="360"/>
                        </Array>
                    </mxGeometry>
                </mxCell>
                <mxCell id="61" value="写入低7位&lt;br&gt;将前1位设为1&lt;br&gt;&amp;gt;&amp;gt;7位继续处理高位数据" style="rounded=1;whiteSpace=wrap;html=1;sketch=0;strokeColor=#006EAF;fillColor=#1ba1e2;fontSize=20;fontColor=#ffffff;" vertex="1" parent="52">
                    <mxGeometry x="361" y="160" width="229" height="110" as="geometry"/>
                </mxCell>
                <mxCell id="62" style="edgeStyle=orthogonalEdgeStyle;curved=0;rounded=1;sketch=0;orthogonalLoop=1;jettySize=auto;html=1;exitX=1;exitY=0.5;exitDx=0;exitDy=0;entryX=0.039;entryY=0.544;entryDx=0;entryDy=0;entryPerimeter=0;strokeColor=#60E696;strokeWidth=5;fillColor=#F694C1;fontSize=20;fontColor=#FFFFFF;" edge="1" parent="52" source="58" target="61">
                    <mxGeometry relative="1" as="geometry"/>
                </mxCell>
                <mxCell id="63" value="&lt;b&gt;1&lt;/b&gt;" style="text;html=1;align=center;verticalAlign=middle;resizable=0;points=[];autosize=1;fontSize=20;fontColor=#ffffff;fillColor=#a20025;strokeColor=#6F0000;" vertex="1" parent="52">
                    <mxGeometry x="140" y="125" width="30" height="30" as="geometry"/>
                </mxCell>
                <mxCell id="64" value="&lt;b&gt;2&lt;/b&gt;" style="text;html=1;align=center;verticalAlign=middle;resizable=0;points=[];autosize=1;fontSize=20;fontColor=#ffffff;fillColor=#a20025;strokeColor=#6F0000;" vertex="1" parent="52">
                    <mxGeometry x="300" y="170" width="30" height="30" as="geometry"/>
                </mxCell>
                <mxCell id="65" value="&lt;b&gt;2&lt;/b&gt;" style="text;html=1;align=center;verticalAlign=middle;resizable=0;points=[];autosize=1;fontSize=20;fontColor=#ffffff;fillColor=#a20025;strokeColor=#6F0000;" vertex="1" parent="52">
                    <mxGeometry x="310" y="5" width="30" height="30" as="geometry"/>
                </mxCell>
                <mxCell id="66" value="&lt;b&gt;3&lt;/b&gt;" style="text;html=1;align=center;verticalAlign=middle;resizable=0;points=[];autosize=1;fontSize=20;fontColor=#ffffff;fillColor=#a20025;strokeColor=#6F0000;" vertex="1" parent="52">
                    <mxGeometry x="290" y="320" width="30" height="30" as="geometry"/>
                </mxCell>
                <mxCell id="67" value="整型编码 Protobuf" style="text;html=1;align=center;verticalAlign=middle;resizable=0;points=[];autosize=1;fontSize=20;fontColor=#FFFFFF;" vertex="1" parent="51">
                    <mxGeometry x="350" y="305" width="180" height="30" as="geometry"/>
                </mxCell>
            </root>
        </mxGraphModel>
    </diagram>
</mxfile>